<?xml version="1.0" encoding="UTF-8"?>
<svg id="Calque_1" data-name="Calque 1" xmlns="http://www.w3.org/2000/svg" viewBox="0 0 1000 1000">
  <defs>
    <style>
      .cls-1 {
        fill: #f299c1;
      }

      .cls-1, .cls-2, .cls-3, .cls-4, .cls-5, .cls-6, .cls-7, .cls-8, .cls-9 {
        stroke-width: 0px;
      }

      .cls-2 {
        fill: #624595;
      }

      .cls-3 {
        fill: #6db52d;
      }

      .cls-4 {
        fill: #f49819;
      }

      .cls-5 {
        fill: #2d509f;
      }

      .cls-6 {
        fill: #e52421;
      }

      .cls-7 {
        fill: #6ec6d9;
      }

      .cls-8 {
        fill: #1d1d1b;
      }

      .cls-9 {
        fill: #f3e600;
      }
    </style>
  </defs>
  <path class="cls-1" d="M597.86,902.14c0,54.3-44.23,98.27-98.62,97.86-53.95-.41-97.1-45.13-97.1-99.09v-155.14c0-26.83,21.26-49.27,48.08-49.73,27.41-.46,49.78,21.61,49.78,48.92h0c0,29.33,16.52,56.31,42.88,69.18,32.55,15.89,54.98,49.32,54.98,87.99Z"/>
  <path class="cls-9" d="M999.99,498.6c.76,54.69-43.34,99.26-97.85,99.26h-156.37c-26.83,0-49.28-21.26-49.73-48.09-.46-27.41,21.62-49.77,48.92-49.77h1.54c28.96,0,54.95-16.89,67.67-42.91,16.09-32.93,50.12-55.48,89.36-54.94,52.71.73,95.73,43.74,96.47,96.45Z"/>
  <path class="cls-4" d="M855.77,285.87c-.08.08-.16.16-.24.23h.01s-111.14,111.14-111.14,111.14c-19.11,19.11-50.09,19.11-69.19,0-19.11-19.1-19.11-50.09,0-69.19l1.13-1.13c20.56-20.57,27.04-51,17.63-78.51-11.7-34.22-3.9-73.63,23.39-100.93,38.22-38.21,100.18-38.21,138.4,0,38.22,38.22,38.22,100.18,0,138.4Z"/>
  <path class="cls-2" d="M150.22,709.58l-9.43,9.43c1.44-1.67,2.96-3.29,4.55-4.88,1.59-1.59,3.21-3.11,4.88-4.55Z"/>
  <path class="cls-6" d="M847.94,859.65c-36,36-93.07,38.09-131.51,6.26-.29-.22-.57-.46-.85-.71l-11.59-11.59-98.77-98.77c-19.1-19.11-19.1-50.09,0-69.2,19.11-19.11,50.09-19.11,69.2,0l.79.79c17.57,17.57,43.89,22.51,66.93,13.23,35.29-14.21,77.19-7.01,105.8,21.59,38.22,38.21,38.22,100.18,0,138.39Z"/>
  <path class="cls-6" d="M715.58,865.2c-2.07-1.74-4.09-3.6-6.04-5.55s-3.81-3.97-5.55-6.04l11.59,11.59Z"/>
  <g>
    <path class="cls-8" d="M311.84,475.83h27.04v5.44h-20.56v16.69h19v5.36h-19v22.72h-6.48v-50.21Z"/>
    <path class="cls-8" d="M378.21,507.71c0,13.33-9.24,19.14-17.95,19.14-9.76,0-17.28-7.15-17.28-18.55,0-12.07,7.9-19.14,17.88-19.14s17.36,7.52,17.36,18.55ZM349.61,508.08c0,7.9,4.54,13.86,10.95,13.86s10.95-5.88,10.95-14c0-6.11-3.05-13.86-10.8-13.86s-11.1,7.15-11.1,14Z"/>
    <path class="cls-8" d="M386.48,501.23c0-4.25-.07-7.9-.3-11.25h5.74l.22,7.08h.3c1.64-4.84,5.59-7.9,9.98-7.9.74,0,1.27.07,1.86.22v6.18c-.67-.15-1.34-.22-2.23-.22-4.62,0-7.9,3.5-8.79,8.42-.15.89-.3,1.94-.3,3.05v19.22h-6.48v-24.81Z"/>
    <path class="cls-8" d="M411.14,499.74c0-3.72-.07-6.78-.3-9.76h5.74l.3,5.81h.22c2.01-3.43,5.36-6.63,11.32-6.63,4.92,0,8.64,2.98,10.21,7.23h.15c1.12-2.01,2.53-3.58,4.02-4.69,2.16-1.64,4.54-2.53,7.97-2.53,4.77,0,11.84,3.13,11.84,15.64v21.23h-6.41v-20.41c0-6.93-2.53-11.1-7.82-11.1-3.72,0-6.63,2.76-7.75,5.96-.3.89-.52,2.09-.52,3.28v22.27h-6.41v-21.6c0-5.74-2.53-9.91-7.52-9.91-4.1,0-7.08,3.28-8.12,6.56-.37.97-.52,2.09-.52,3.2v21.75h-6.41v-26.3Z"/>
    <path class="cls-8" d="M493.22,526.03l-.52-4.54h-.22c-2.01,2.83-5.88,5.36-11.02,5.36-7.3,0-11.03-5.14-11.03-10.35,0-8.72,7.75-13.48,21.68-13.41v-.74c0-2.98-.82-8.34-8.19-8.34-3.35,0-6.85,1.04-9.39,2.68l-1.49-4.32c2.98-1.94,7.3-3.2,11.84-3.2,11.02,0,13.71,7.52,13.71,14.75v13.48c0,3.13.15,6.18.6,8.64h-5.96ZM492.25,507.64c-7.15-.15-15.27,1.12-15.27,8.12,0,4.25,2.83,6.26,6.18,6.26,4.69,0,7.67-2.98,8.72-6.03.22-.67.37-1.41.37-2.09v-6.26Z"/>
    <path class="cls-8" d="M534.86,524.69c-1.71.89-5.51,2.09-10.35,2.09-10.88,0-17.95-7.37-17.95-18.4s7.6-19.14,19.37-19.14c3.87,0,7.3.97,9.09,1.86l-1.49,5.07c-1.56-.89-4.02-1.71-7.6-1.71-8.27,0-12.74,6.11-12.74,13.63,0,8.34,5.36,13.48,12.51,13.48,3.72,0,6.18-.97,8.04-1.79l1.12,4.92Z"/>
    <path class="cls-8" d="M574.71,507.71c0,13.33-9.24,19.14-17.95,19.14-9.76,0-17.28-7.15-17.28-18.55,0-12.07,7.9-19.14,17.88-19.14s17.36,7.52,17.36,18.55ZM546.11,508.08c0,7.9,4.54,13.86,10.95,13.86s10.95-5.88,10.95-14c0-6.11-3.05-13.86-10.8-13.86s-11.1,7.15-11.1,14Z"/>
    <path class="cls-8" d="M582.98,473.15h6.55v52.89h-6.55v-52.89Z"/>
    <path class="cls-8" d="M600.56,473.15h6.55v52.89h-6.55v-52.89Z"/>
    <path class="cls-8" d="M638.1,526.03l-.52-4.54h-.22c-2.01,2.83-5.88,5.36-11.02,5.36-7.3,0-11.02-5.14-11.02-10.35,0-8.72,7.75-13.48,21.68-13.41v-.74c0-2.98-.82-8.34-8.19-8.34-3.35,0-6.85,1.04-9.39,2.68l-1.49-4.32c2.98-1.94,7.3-3.2,11.84-3.2,11.02,0,13.71,7.52,13.71,14.75v13.48c0,3.13.15,6.18.6,8.64h-5.96ZM637.13,507.64c-7.15-.15-15.27,1.12-15.27,8.12,0,4.25,2.83,6.26,6.18,6.26,4.69,0,7.67-2.98,8.72-6.03.22-.67.37-1.41.37-2.09v-6.26Z"/>
    <path class="cls-8" d="M653.74,526.03c.15-2.46.3-6.11.3-9.31v-43.58h6.48v22.65h.15c2.31-4.02,6.48-6.63,12.29-6.63,8.94,0,15.27,7.45,15.2,18.4,0,12.89-8.12,19.29-16.16,19.29-5.21,0-9.39-2.01-12.07-6.78h-.22l-.3,5.96h-5.66ZM660.52,511.58c0,.82.15,1.64.3,2.38,1.27,4.54,5.07,7.67,9.83,7.67,6.85,0,10.95-5.59,10.95-13.86,0-7.23-3.72-13.41-10.73-13.41-4.47,0-8.64,3.05-9.98,8.04-.15.75-.37,1.64-.37,2.68v6.48Z"/>
  </g>
  <path class="cls-3" d="M597.86,97.86v157.17c0,27.31-22.37,49.39-49.78,48.92-26.82-.45-48.08-22.9-48.08-49.73v-.73c0-28.95-16.89-54.95-42.9-67.65-32.92-16.08-55.48-50.1-54.95-89.34C402.87,43.8,445.87.76,498.57.01c54.7-.78,99.29,43.32,99.29,97.85Z"/>
  <path class="cls-7" d="M405.72,317.78c-19.11,19.1-50.09,19.1-69.2,0l-1.44-1.44c-20.56-20.56-50.99-27.04-78.5-17.64-34.22,11.7-73.63,3.9-100.93-23.4-38.22-38.22-38.22-100.18,0-138.4,38.22-38.21,100.18-38.21,138.4,0,.18.18.36.36.52.54l.18.18,110.96,110.96c19.11,19.11,19.11,50.09,0,69.2Z"/>
  <path class="cls-6" d="M716.43,865.91l-.07.07-.78-.78c.28.25.56.49.85.71Z"/>
  <path class="cls-5" d="M301.58,451.07c0,27.02-21.9,48.93-48.93,48.93h0c-28.44,0-54.18,16.48-66.44,42.13-15.66,32.77-49.01,55.47-87.69,55.72C44.42,598.21,0,554.11,0,500c0-53.26,42.53-96.57,95.48-97.83.79-.02,1.59-.03,2.38-.03h154.79c27.03,0,48.93,21.91,48.93,48.93Z"/>
  <path class="cls-5" d="M97.86,402.14c-.79,0-1.59.01-2.38.03v-.03h2.38Z"/>
  <path class="cls-2" d="M320.98,677.22h0c-18.68,18.68-24.38,46.55-14.98,71.24,13.2,34.68,5.97,75.35-21.67,103.47-37.65,38.29-99.85,38.92-138.22,1.35-37.32-36.53-39.14-95.4-5.45-134.11.03-.05.08-.11.14-.16l110.99-110.99c19.11-19.1,50.09-19.1,69.2,0,19.11,19.11,19.11,50.09,0,69.2Z"/>
  <path class="cls-2" d="M140.79,719.01c-.06.05-.11.11-.14.16h-.01s.15-.16.15-.16Z"/>
</svg>