<?xml version="1.0" encoding="UTF-8"?>
<svg id="Calque_1" data-name="Calque 1" xmlns="http://www.w3.org/2000/svg" width="500" height="500" viewBox="0 0 500 500">
  <defs>
    <style>
      .cls-1 {
        fill: #303030;
      }

      .cls-1, .cls-2, .cls-3 {
        stroke-width: 0px;
      }

      .cls-4 {
        fill: none;
        stroke: #303030;
        stroke-miterlimit: 10;
        stroke-width: 2px;
      }

      .cls-2 {
        fill: #ff4b33;
      }

      .cls-3 {
        fill: #9ce6e8;
      }
    </style>
  </defs>
  <path class="cls-3" d="M363.64,379.16c19.75,52.2,37.91,59.43,33.29,76.65-8.98,33.45-87.55,43.29-140.93,40.11-74.94-4.46-159.77-38.13-160.23-73.4-.17-12.56,10.52-13.02,27.1-41.03,25.54-43.16,12.97-63.68,33.29-88.26,26.56-32.13,76.03-30.88,88.09-30.58,6.71.17,66.02,2.5,96.17,44.52,14.61,20.36,6.6,28.06,23.23,72Z"/>
  <path class="cls-2" d="M347.51,139.97c8.32,35.67-41.87,93.08-97.51,92.48-33.55-.36-66.78-21.79-79.84-48.77-6.26-12.93-7.05-25.4-7.16-27.48-.32-5.98-1.51-27.85,12.75-44.11,7.12-8.11,16.82-11.74,36.22-18.98,18.48-6.9,27.71-10.35,38.04-11.1,33.05-2.39,58.69,17.16,67.84,24.13,15.17,11.57,26.49,20.19,29.68,33.84Z"/>
  <path class="cls-1" d="M86.32,430.48v2.85c0-.95.01-1.9.02-2.84,0,0-.02,0-.02-.01ZM88.33,432.28c-.67-.59-1.33-1.18-1.99-1.79,0,0-.02,0-.02-.01v2.85c.67.6,1.34,1.2,2.01,1.78-.01-.52-.01-1.04-.01-1.56,0-.42,0-.85.01-1.27ZM86.32,430.48v2.85c0-.95.01-1.9.02-2.84,0,0-.02,0-.02-.01Z"/>
  <path class="cls-1" d="M496.32,250c0,65.71-25.58,127.48-72.04,173.94-5.48,5.48-11.18,10.68-17.08,15.56-.68.58-1.36,1.14-2.05,1.69-43.67,35.51-97.76,54.8-154.81,54.8-60.22,0-117.15-21.5-162.01-60.88-.01-.52-.01-1.04-.01-1.56,0-.42,0-.85.01-1.27,43.12,38.37,99.89,61.71,162.01,61.71,58.76,0,112.74-20.88,154.9-55.61.03-1.6.05-3.21.05-4.83,0-100.62-71.1-182.48-158.48-182.48s-157.89,81.17-158.48,181.21c-.67-.59-1.33-1.18-1.99-1.79,1.43-100.32,72.87-181.42,160.47-181.42s160.48,82.76,160.48,184.48c0,1.05-.01,2.09-.02,3.13,53.19-44.79,87.05-111.85,87.05-186.68,0-134.53-109.45-243.98-243.98-243.98S6.36,115.47,6.36,250c0,54,17.63,103.97,47.45,144.43v3.57C21.72,355.58,4.36,304.13,4.36,250c0-65.7,25.58-127.47,72.04-173.93C122.86,29.61,184.64,4.02,250.34,4.02s127.48,25.59,173.94,72.05c46.46,46.46,72.04,108.23,72.04,173.93Z"/>
  <path class="cls-1" d="M88.33,432.28c-.67-.59-1.33-1.18-1.99-1.79,0,.94-.02,1.89-.02,2.84.67.6,1.34,1.2,2.01,1.78-.01-.52-.01-1.04-.01-1.56,0-.42,0-.85.01-1.27Z"/>
  <ellipse class="cls-4" cx="250" cy="151.62" rx="98.71" ry="74.71"/>
</svg>